<?xml version="1.0" encoding="UTF-8"?>
<svg width="55px" height="55px" viewBox="0 0 55 55" version="1.1" xmlns="http://www.w3.org/2000/svg" xmlns:xlink="http://www.w3.org/1999/xlink">
    <!-- Generator: Sketch 41.2 (35397) - http://www.bohemiancoding.com/sketch -->
    <title>fair-for-life</title>
    <desc>Created with Sketch.</desc>
    <defs></defs>
    <g id="Page-1" stroke="none" stroke-width="1" fill="none" fill-rule="evenodd">
        <g id="fair-for-life" fill="#543213">
            <g id="Group" transform="translate(5.000000, 0.000000)">
                <path d="M19.125,20.28125 C18.71875,20.34375 17.09375,20.46875 16.65625,21.875 C16.25,23.15625 16.71875,24.15625 16.96875,24.40625 C17.59375,24.96875 18.40625,25.03125 19.09375,24.84375 C19.3125,24.78125 19.53125,24.71875 19.71875,24.625 C19.90625,24.53125 20.09375,24.375 20.28125,24.21875 C20.5625,23.96875 20.71875,23.59375 20.8125,23.125 L20.8125,20.28125 C20.40625,20.28125 19.5625,20.21875 19.125,20.28125 Z" id="Shape"></path>
                <path d="M12.0625,35.28125 C11.59375,35.28125 11.15625,35.46875 10.875,35.90625 C10.625,36.28125 10.5,37.34375 10.5,37.9375 C10.5,38.46875 10.625,39.59375 10.84375,39.96875 C11.0625,40.40625 11.59375,40.65625 12.0625,40.65625 C12.84375,40.65625 13.15625,40.25 13.375,39.875 C13.59375,39.4375 13.65625,38.4375 13.65625,37.90625 C13.65625,37.375 13.625,36.28125 13.25,35.8125 C12.96875,35.5 12.53125,35.28125 12.0625,35.28125 Z" id="Shape"></path>
                <path d="M41.34375,0 L4.75,0 C2.125,0 0,2.125 0,4.75 L0,50.03125 C0,52.65625 2.125,54.78125 4.75,54.78125 L41.375,54.78125 C44,54.78125 46.125,52.65625 46.125,50.03125 L46.125,4.75 C46.09375,2.125 43.96875,0 41.34375,0 Z M37.78125,14.90625 C38.40625,14.09375 39.21875,13.09375 40.25,12.84375 C41.21875,12.59375 41.96875,12.71875 42.28125,12.9375 L41.375,15.6875 C40.96875,15.5 40.40625,15.375 39.84375,15.53125 C39.21875,15.6875 38.25,16.375 38.0625,17.375 C37.96875,17.84375 38,19.125 38,19.4375 L38,26.75 L35.03125,26.75 L35.03125,16.5625 C34.9375,15.03125 34.78125,13.84375 34.46875,13.46875 L37.1875,12.6875 C37.65625,12.96875 37.78125,14.90625 37.78125,14.90625 Z M37.4375,39.75 C37.84375,40.5 39.53125,41.28125 40.71875,39.9375 L41.21875,40.71875 C40.9375,41.0625 40.1875,41.65625 38.9375,41.6875 C38.53125,41.6875 37.90625,41.65625 37.53125,41.46875 C37.15625,41.28125 36.875,41.09375 36.59375,40.75 C36.3125,40.40625 36.03125,39.96875 35.90625,39.5 C35.78125,39.0625 35.71875,38.5625 35.71875,38.0625 C35.71875,37.5625 35.78125,37 35.9375,36.5625 C36.09375,36.125 36.1875,35.8125 36.5,35.46875 C36.78125,35.125 37.0625,34.875 37.4375,34.6875 C37.8125,34.5 38.375,34.375 38.78125,34.375 C39.71875,34.375 40.375,34.875 40.6875,35.21875 C41.34375,35.96875 41.5,37.1875 41.5,38.34375 L37.21875,38.34375 C37.15625,38.84375 37.21875,39.375 37.4375,39.75 Z M35.3125,34.46875 L34.875,35.375 L33.46875,35.375 L33.46875,36.40625 L33.46875,36.78125 L33.46875,41.53125 L32.15625,41.53125 L32.15625,35.84375 L32.15625,35.40625 L31.5,35.40625 L31.5,34.5 L32.15625,34.5 L32.15625,33.3125 C32.15625,33.15625 32.1875,32.78125 32.21875,32.6875 C32.28125,32.5 32.5,32.0625 32.625,31.96875 C34.03125,30.65625 35.65625,31.78125 35.65625,31.78125 L35.25,32.5625 C35.125,32.5 34.59375,32.25 34.15625,32.34375 C33.78125,32.40625 33.5,32.71875 33.46875,33.09375 L33.46875,34.53125 L33.46875,34.53125 L35.3125,34.53125 L35.3125,34.46875 Z M28.4375,7.34375 C29.0625,5.90625 30.40625,4.40625 32.46875,3.875 C34.53125,3.3125 35.3125,2.65625 35.3125,2.65625 C35.3125,2.65625 35.53125,6.5625 34.59375,8.125 C33.65625,9.71875 31.4375,10.96875 27.8125,10.96875 C27.8125,11 27.8125,8.78125 28.4375,7.34375 Z M29.15625,33.25 C28.65625,33.25 28.21875,32.84375 28.21875,32.3125 C28.21875,31.8125 28.625,31.375 29.15625,31.375 C29.65625,31.375 30.09375,31.78125 30.09375,32.3125 C30.09375,32.84375 29.6875,33.25 29.15625,33.25 Z M29.84375,41.53125 L28.5,41.53125 L28.46875,34.53125 L29.8125,34.375 L29.84375,41.53125 Z M27.96875,26.6875 L27.9375,13.34375 L30.96875,12.78125 L31,26.6875 L27.96875,26.6875 Z M26.15625,40 L26.15625,40.15625 C26.15625,40.21875 26.15625,40.25 26.1875,40.3125 C26.21875,40.4375 26.28125,40.53125 26.34375,40.59375 C26.4375,40.65625 26.59375,40.6875 26.71875,40.6875 L26.96875,41.5 C26.40625,41.625 25.875,41.625 25.53125,41.5 C25.1875,41.375 24.84375,40.9375 24.8125,40.59375 C24.8125,40.4375 24.78125,39.96875 24.78125,39.8125 L24.78125,32.46875 C24.78125,32.125 24.71875,31.5625 24.71875,31.5625 L26.03125,31.3125 L26.15625,40 Z M20.90625,17.03125 C20.90625,16.90625 20.875,16.5 20.84375,16.375 C20.8125,16.25 20.53125,15.0625 19.34375,15.15625 L19.1875,15.15625 C18.4375,15.1875 17.0625,15.28125 15.03125,16.6875 L13.75,14.5625 C14.28125,14.1875 15.5625,13.4375 16.40625,13.21875 C17.28125,12.96875 17.84375,12.8125 18.625,12.75 L19,12.75 C19.15625,12.75 19.3125,12.71875 19.40625,12.71875 C19.71875,12.71875 20.03125,12.75 20.34375,12.78125 C20.65625,12.8125 21,12.875 21.34375,12.9375 C22.1875,13.21875 22.84375,13.71875 23.40625,14.5 C23.9375,15.21875 23.8125,16.5 23.8125,16.96875 L23.78125,23.34375 C23.78125,23.5 23.84375,24 23.875,24.15625 C24.03125,24.625 24.8125,25.34375 24.96875,25.40625 L23.5,27.3125 C22.59375,27.09375 21.90625,26.28125 21.625,25.46875 C20.78125,26.4375 19.59375,27.15625 18.3125,27.15625 C17.65625,27.15625 13.46875,27.53125 13.34375,23.1875 C13.3125,22.09375 13.59375,20.96875 14.28125,20.25 C14.46875,20.0625 14.84375,19.71875 15.0625,19.5625 C17.125,18.0625 20.9375,18.375 20.9375,18.375 L20.90625,17.03125 Z M18.28125,37.78125 L18.28125,41.53125 L17.03125,41.53125 L17.03125,36.28125 C16.96875,35.5 16.90625,34.875 16.75,34.6875 L17.875,34.28125 C18.09375,34.4375 18.15625,35.4375 18.15625,35.4375 C18.46875,35.03125 18.90625,34.5 19.4375,34.375 C19.9375,34.25 20.3125,34.3125 20.46875,34.40625 L20.15625,35.625 C19.9375,35.53125 19.53125,35.53125 19.21875,35.625 C18.90625,35.71875 18.40625,36.1875 18.28125,36.6875 C18.25,36.96875 18.28125,37.625 18.28125,37.78125 Z M15.15625,38.03125 C15.15625,38.53125 15.09375,39.125 14.9375,39.59375 C14.78125,40.03125 14.625,40.40625 14.34375,40.75 C14.0625,41.09375 13.78125,41.28125 13.40625,41.46875 C13.03125,41.65625 12.625,41.71875 12.21875,41.71875 C11.8125,41.71875 11.25,41.6875 10.875,41.5 C10.5,41.3125 10.21875,41.125 9.9375,40.75 C9.65625,40.40625 9.375,39.9375 9.25,39.46875 C9.125,39 9.0625,38.53125 9.0625,38.03125 C9.0625,37.53125 9.125,36.96875 9.28125,36.5 C9.4375,36.0625 9.53125,35.75 9.84375,35.40625 C10.125,35.0625 10.40625,34.78125 10.78125,34.59375 C11.15625,34.40625 11.71875,34.28125 12.125,34.28125 C13.3125,34.28125 14.0625,34.9375 14.375,35.28125 C14.90625,36.03125 15.15625,36.90625 15.15625,38.03125 Z M4.1875,13.1875 L5.4375,13.1875 C5.4375,13.1875 5.46875,11.03125 5.46875,10.75 C5.46875,10.46875 5.53125,9.6875 5.59375,9.5 C5.71875,9.125 6.125,8.3125 6.375,8.09375 C7.125,7.375 7.625,7.125 8.65625,7 C11.0625,6.71875 12.625,7.71875 12.625,7.71875 L11.6875,9.59375 C11.4375,9.46875 10.5625,8.96875 9.6875,9.125 C8.9375,9.28125 8.40625,9.84375 8.375,10.5625 L8.375,13.125 L8.375,13.125 L11.9375,13.125 L11.125,15.09375 L8.375,15.09375 L8.375,16.75 L8.375,17.5 L8.375,26.71875 L5.4375,26.71875 L5.4375,16 L5.4375,15.125 L4.1875,15.125 L4.1875,13.1875 L4.1875,13.1875 Z M8.625,34.46875 L8.1875,35.375 L6.78125,35.375 L6.78125,36.40625 L6.78125,36.78125 L6.78125,41.53125 L5.46875,41.53125 L5.46875,35.84375 L5.46875,35.40625 L4.8125,35.40625 L4.8125,34.5 L5.46875,34.5 L5.46875,33.3125 C5.46875,33.15625 5.5,32.78125 5.53125,32.6875 C5.59375,32.5 5.8125,32.0625 5.9375,31.96875 C7.34375,30.65625 8.96875,31.78125 8.96875,31.78125 L8.5625,32.5625 C8.4375,32.5 7.90625,32.25 7.46875,32.34375 C7.09375,32.40625 6.8125,32.71875 6.78125,33.09375 L6.78125,34.53125 L6.78125,34.53125 L8.625,34.53125 L8.625,34.46875 Z M45.46875,50.03125 C45.46875,52.3125 43.625,54.15625 41.34375,54.15625 L4.75,54.15625 C2.46875,54.15625 0.625,52.3125 0.625,50.03125 L0.625,45.71875 L45.46875,45.71875 L45.46875,50.03125 Z" id="Shape"></path>
                <path d="M38.75,35.28125 C38.28125,35.28125 37.84375,35.46875 37.5625,35.90625 C37.375,36.1875 37.28125,36.78125 37.21875,37.3125 L40.15625,37.3125 C39.90625,35.5 39.09375,35.28125 38.75,35.28125 Z" id="Shape"></path>
            </g>
            <g id="Group" transform="translate(17.500000, 47.812500)">
                <path d="M7.0625,1.71875 C6.9375,1.75 6.75,1.875 6.71875,2.0625 C6.6875,2.15625 6.71875,2.40625 6.71875,2.46875 L6.71875,3.90625 L6.15625,3.90625 L6.15625,1.90625 C6.125,1.625 6.09375,1.375 6.0625,1.3125 L6.5625,1.15625 C6.65625,1.21875 6.65625,1.59375 6.65625,1.59375 C6.78125,1.4375 6.9375,1.25 7.125,1.1875 C7.3125,1.125 7.4375,1.15625 7.5,1.21875 L7.34375,1.75 C7.28125,1.71875 7.1875,1.6875 7.0625,1.71875 Z" id="Shape"></path>
                <path d="M0.75,1.25 L0.75,0.71875 C0.75,0.5625 0.84375,0.46875 1,0.4375 C1.15625,0.40625 1.375,0.5 1.40625,0.53125 L1.5625,0.25 C1.5625,0.25 0.9375,-0.15625 0.40625,0.3125 C0.34375,0.34375 0.28125,0.53125 0.25,0.59375 C0.25,0.625 0.21875,0.78125 0.21875,0.84375 L0.21875,1.3125 L0,1.3125 L0,1.65625 L0.25,1.65625 L0.25,1.8125 L0.25,3.96875 L0.75,3.96875 L0.75,2.1875 L0.75,2.1875 L0.75,2.03125 L0.75,1.5625 L1.28125,1.5625 L1.4375,1.21875 L0.75,1.25 L0.75,1.25 Z" id="Shape"></path>
                <polygon id="Shape" points="9.9375 1.25 10.65625 1.25 10.5 1.70454545 9.9375 1.70454545 9.4375 1.75 9.21875 1.75 9.21875 1.25 9.4375 1.25"></polygon>
                <path d="M12.4375,1.6875 C12.3125,1.71875 12.125,1.90625 12.09375,2.09375 C12.0625,2.1875 12.09375,2.4375 12.09375,2.5 L12.09375,3.9375 L11.625,3.9375 L11.625,1.9375 C11.59375,1.65625 11.5625,1.40625 11.53125,1.34375 L11.96875,1.1875 C12.0625,1.25 12.0625,1.625 12.0625,1.625 C12.1875,1.46875 12.34375,1.28125 12.53125,1.21875 C12.71875,1.15625 12.875,1.1875 12.9375,1.25 L12.8125,1.71875 C12.71875,1.65625 12.5625,1.65625 12.4375,1.6875 Z" id="Shape"></path>
                <polygon id="Shape" points="4.65625 3.90625 4.65625 1.25 5.15625 1.1875 5.15625 3.90625"></polygon>
                <polygon id="Shape" points="18.0625 3.90625 18.0625 0 18.5625 0.09375 18.5625 3.90625"></polygon>
                <path d="M3.59375,3.40625 C3.59375,3.375 3.5625,3.28125 3.5625,3.25 L3.5625,2 C3.5625,1.90625 3.59375,1.65625 3.5,1.53125 C3.40625,1.375 3.28125,1.28125 3.125,1.21875 C3.0625,1.21875 3,1.1875 2.9375,1.1875 L2.78125,1.1875 L2.71875,1.1875 L2.65625,1.1875 C2.5,1.1875 2.40625,1.21875 2.25,1.28125 C2.09375,1.3125 1.875,1.46875 1.78125,1.53125 L2.03125,1.9375 C2.40625,1.65625 2.65625,1.65625 2.78125,1.625 L2.8125,1.625 C3.03125,1.625 3.09375,1.84375 3.09375,1.875 L3.09375,2 L3.09375,2.25 C3.09375,2.25 2.40625,2.1875 2.03125,2.46875 C2,2.5 1.90625,2.5625 1.875,2.59375 C1.75,2.75 1.6875,2.96875 1.6875,3.15625 C1.71875,4 2.46875,3.9375 2.59375,3.9375 C2.84375,3.9375 3.03125,3.8125 3.1875,3.625 C3.25,3.78125 3.375,3.9375 3.53125,4 L3.8125,3.625 C3.78125,3.625 3.625,3.5 3.59375,3.40625 Z M3.0625,3.1875 C3.03125,3.28125 3,3.34375 2.96875,3.40625 C2.9375,3.4375 2.90625,3.46875 2.875,3.5 C2.84375,3.53125 2.8125,3.53125 2.75,3.53125 C2.625,3.5625 2.46875,3.5625 2.375,3.4375 C2.3125,3.375 2.25,3.1875 2.3125,2.9375 C2.40625,2.65625 2.6875,2.625 2.75,2.625 L3.0625,2.625 L3.0625,3.1875 Z" id="Shape"></path>
                <path d="M15.25,3.40625 C15.25,3.375 15.21875,3.28125 15.21875,3.25 L15.21875,2 C15.21875,1.90625 15.25,1.65625 15.15625,1.53125 C15.0625,1.375 14.9375,1.28125 14.78125,1.21875 C14.71875,1.21875 14.65625,1.1875 14.59375,1.1875 L14.4375,1.1875 L14.375,1.1875 L14.3125,1.1875 C14.15625,1.1875 14.0625,1.21875 13.90625,1.28125 C13.75,1.3125 13.53125,1.46875 13.4375,1.53125 L13.6875,1.9375 C14.0625,1.65625 14.3125,1.65625 14.4375,1.625 L14.46875,1.625 C14.6875,1.625 14.75,1.84375 14.75,1.875 L14.75,2 L14.75,2.25 C14.75,2.25 14.0625,2.1875 13.6875,2.46875 C13.65625,2.5 13.5625,2.5625 13.53125,2.59375 C13.40625,2.75 13.34375,2.96875 13.34375,3.15625 C13.375,4 14.125,3.9375 14.25,3.9375 C14.5,3.9375 14.6875,3.8125 14.84375,3.625 C14.90625,3.78125 15.03125,3.9375 15.1875,4 L15.46875,3.625 C15.40625,3.625 15.28125,3.5 15.25,3.40625 Z M14.6875,3.1875 C14.65625,3.28125 14.625,3.34375 14.59375,3.40625 C14.5625,3.4375 14.53125,3.46875 14.5,3.5 C14.46875,3.53125 14.4375,3.53125 14.375,3.53125 C14.25,3.5625 14.09375,3.5625 14,3.4375 C13.9375,3.375 13.875,3.1875 13.9375,2.9375 C14.03125,2.65625 14.3125,2.625 14.375,2.625 L14.6875,2.625 L14.6875,3.1875 Z" id="Shape"></path>
                <path d="M10.59375,3.90625 C10.34375,3.9375 9.96875,3.96875 9.8125,3.90625 C9.65625,3.875 9.53125,3.6875 9.53125,3.5625 C9.53125,3.5 9.5,3.3125 9.5,3.25 L9.5,0.90625 C9.5,0.78125 9.46875,0.5625 9.46875,0.5625 L10,0.46875 L10.03125,3.28125 L10.03125,3.34375 L10.03125,3.40625 C10.03125,3.46875 10.0625,3.5 10.09375,3.53125 C10.125,3.5625 10.375,3.5625 10.4375,3.5625 L10.59375,3.90625 Z" id="Shape"></path>
                <path d="M18.21875,1.375 C18.0625,1.28125 17.84375,1.1875 17.59375,1.1875 C17.4375,1.1875 17.21875,1.21875 17.09375,1.3125 C16.9375,1.375 16.84375,1.46875 16.75,1.625 C16.625,1.75 16.59375,1.875 16.53125,2.03125 C16.46875,2.1875 16.4375,2.40625 16.4375,2.59375 C16.4375,2.78125 16.46875,2.96875 16.5,3.125 C16.5625,3.3125 16.65625,3.46875 16.75,3.59375 C16.84375,3.71875 16.96875,3.8125 17.09375,3.875 C17.25,3.9375 17.4375,3.96875 17.59375,3.96875 C17.75,3.96875 17.90625,3.9375 18.03125,3.875 C18.15625,3.8125 18.25,3.75 18.3125,3.6875 L18.21875,1.375 Z M18,3.375 C17.90625,3.46875 17.8125,3.59375 17.5625,3.59375 C17.375,3.59375 17.1875,3.5 17.09375,3.34375 C17,3.1875 16.96875,2.78125 16.96875,2.5625 C16.96875,2.34375 17,1.9375 17.125,1.78125 C17.25,1.625 17.40625,1.53125 17.5625,1.53125 C17.6875,1.53125 17.8125,1.5625 17.90625,1.65625 C17.90625,1.65625 18.15625,1.6875 18.15625,1.875 C18.1875,2.09375 18.1875,3.21875 18,3.375 Z" id="Shape"></path>
                <path d="M21.15625,3.3125 C20.71875,3.8125 20.0625,3.53125 19.90625,3.25 C19.84375,3.09375 19.8125,2.90625 19.8125,2.6875 L21.4375,2.6875 C21.4375,2.25 21.375,1.78125 21.125,1.5 C21,1.375 20.75,1.1875 20.40625,1.1875 C20.25,1.1875 20.03125,1.21875 19.90625,1.3125 C19.75,1.375 19.65625,1.46875 19.5625,1.625 C19.4375,1.75 19.40625,1.875 19.34375,2.03125 C19.28125,2.1875 19.25,2.40625 19.25,2.59375 C19.25,2.78125 19.28125,2.96875 19.3125,3.125 C19.375,3.3125 19.46875,3.46875 19.5625,3.59375 C19.65625,3.71875 19.78125,3.8125 19.90625,3.875 C20.0625,3.9375 20.28125,3.96875 20.4375,3.96875 C20.90625,3.96875 21.1875,3.71875 21.3125,3.59375 L21.15625,3.3125 Z M19.8125,2.3125 C19.84375,2.09375 19.875,1.875 19.9375,1.78125 C20.0625,1.625 20.21875,1.53125 20.375,1.53125 C20.5,1.53125 20.8125,1.625 20.90625,2.3125 L19.8125,2.3125 Z" id="Shape"></path>
                <circle id="Oval" cx="4.9375" cy="0.46875" r="0.375"></circle>
            </g>
        </g>
    </g>
</svg>