<?xml version="1.0" encoding="UTF-8"?>
<svg width="55px" height="55px" viewBox="0 0 55 55" version="1.1" xmlns="http://www.w3.org/2000/svg" xmlns:xlink="http://www.w3.org/1999/xlink">
    <!-- Generator: Sketch 41.2 (35397) - http://www.bohemiancoding.com/sketch -->
    <title>non-gmo</title>
    <desc>Created with Sketch.</desc>
    <defs></defs>
    <g id="Page-1" stroke="none" stroke-width="1" fill="none" fill-rule="evenodd">
        <g id="non-gmo" fill="#543213">
            <path d="M0,36.0097222 C0.152777778,35.9944444 0.313194444,35.9715278 0.465972222,35.9715278 L8.36458333,35.9715278 C8.42569444,35.9715278 8.48680556,35.9638889 8.59375,35.95625 C8.57847222,35.8493056 8.56319444,35.75 8.54027778,35.6583333 C7.84513889,32.79375 6.65347222,30.1354167 5.04930556,27.6756944 C4.10208333,26.2243056 3.03263889,24.8493056 2.01666667,23.44375 C1.95555556,23.3673611 1.90208333,23.2833333 1.87152778,23.16875 C4.01805556,23.9479167 5.9125,25.1319444 7.5625,26.7131944 C9.2125,28.2944444 10.4881944,30.1354167 11.2979167,32.2284722 C12.1611111,30.4333333 13.0319444,28.6305556 13.9104167,26.8201389 L13.9104167,25.8576389 C13.5361111,25.8118056 13.1083333,25.7506944 12.6881944,25.7048611 C11.7944444,25.6055556 10.9006944,25.5597222 10.0145833,25.4222222 C8.73888889,25.2159722 7.70763889,24.54375 6.89027778,23.5583333 C6.26388889,22.8020833 6.1875,21.9236111 6.45486111,21.0145833 C6.59236111,20.5333333 6.82152778,20.075 7.02013889,19.5555556 C6.83680556,18.9215278 6.62291667,18.2340278 6.44722222,17.5388889 C6.1875,16.4694444 5.98125,15.3847222 6.14930556,14.2770833 C6.20277778,13.9104167 6.30972222,13.5284722 6.47013889,13.2 C6.95138889,12.2451389 8.02083333,11.9930556 8.89166667,12.6118056 C9.97638889,13.3833333 10.8319444,14.36875 11.5576389,15.4763889 C12.2833333,16.5840278 12.85625,17.7756944 13.3222222,19.0131944 C13.3604167,19.1048611 13.3986111,19.2041667 13.4444444,19.3263889 C13.5895833,19.0819444 13.7118056,18.8527778 13.8493056,18.6388889 C14.5138889,17.5694444 15.2777778,16.5916667 16.3854167,15.9423611 C16.8819444,15.6520833 17.4090278,15.4763889 17.9972222,15.5222222 C18.6694444,15.5756944 19.04375,15.95 19.0743056,16.6222222 C19.1277778,17.5847222 18.9597222,18.5166667 18.6618056,19.4333333 C18.63125,19.5173611 18.6083333,19.6090278 18.6006944,19.7083333 C20.8236111,17.0118056 23.0006944,14.2770833 26.1326389,12.5659722 C26.1631944,12.5888889 26.1861111,12.6118056 26.2166667,12.6270833 C26.1631944,12.7111111 26.1173611,12.8027778 26.05625,12.8791667 C24.2152778,15.2777778 22.5347222,17.7986111 21.0451389,20.4416667 C18.6083333,24.7729167 16.7444444,29.3333333 15.6826389,34.1993056 C15.5756944,34.6958333 15.4763889,35.1923611 15.3847222,35.6965278 C15.3694444,35.7729167 15.3770833,35.8569444 15.3694444,35.95625 L27.4236111,35.95625 L27.4236111,11 L55,11 L55,45.1534722 C54.8854167,45.1611111 54.7784722,45.16875 54.6715278,45.16875 L0.275,45.16875 C0.183333333,45.16875 0.0916666667,45.1611111 1.73009755e-15,45.1534722 C0,42.1055556 0,39.0576389 0,36.0097222 Z M14.0784722,25.4069444 C14.1090278,25.3993056 14.1472222,25.3840278 14.1777778,25.3763889 C14.1548611,25.0784722 14.1472222,24.7805556 14.1013889,24.4902778 C13.81875,22.825 13.2840278,21.2361111 12.5583333,19.7083333 C11.9548611,18.4326389 11.2215278,17.2409722 10.1902778,16.2555556 C9.90763889,15.9881944 9.60972222,15.7361111 9.27361111,15.5451389 C8.67777778,15.2013889 8.13541667,15.4458333 7.93680556,16.1027778 C7.91388889,16.1791667 7.89861111,16.2631944 7.88333333,16.3472222 C7.76111111,16.9430556 7.84513889,17.53125 7.975,18.1041667 C8.13541667,18.8222222 8.34930556,19.5326389 8.53263889,20.2354167 C8.37986111,20.5638889 8.20416667,20.8923611 8.08194444,21.2361111 C7.67708333,22.3972222 8.02847222,23.3520833 9.10555556,23.9326389 C9.54097222,24.1618056 10.0222222,24.3298611 10.4958333,24.4520833 C11.6951389,24.7729167 12.9555556,24.8340278 14.0784722,25.4069444 Z M44.3972222,26.8888889 L44.3972222,20.6784722 L42.3881944,20.6784722 C41.9069444,22.0305556 41.4256944,23.3826389 40.9444444,24.7347222 L40.8680556,24.7347222 C40.3868056,23.3826389 39.9131944,22.0305556 39.4319444,20.6861111 L37.4076389,20.6861111 L37.4076389,26.8888889 L38.7215278,26.8888889 L38.7215278,22.1986111 C38.7520833,22.1986111 38.7826389,22.1909722 38.8055556,22.1909722 C39.325,23.7645833 39.8444444,25.3305556 40.3638889,26.8965278 L41.3951389,26.8965278 C41.9375,25.3305556 42.4722222,23.7722222 43.0069444,22.2138889 C43.0451389,22.2215278 43.0833333,22.2291667 43.1138889,22.2444444 L43.1138889,26.8965278 C43.5569444,26.8888889 43.9618056,26.8888889 44.3972222,26.8888889 Z M47.1930556,19.6319444 L47.1930556,15.2472222 C47.2159722,15.2395833 47.2465278,15.2319444 47.2694444,15.2243056 C48.1708333,16.6986111 49.0798611,18.1652778 49.9736111,19.6319444 L51.7381944,19.6319444 L51.7381944,13.4520833 L50.4166667,13.4520833 L50.4166667,17.7222222 C50.39375,17.7298611 50.3708333,17.7298611 50.3402778,17.7375 C49.4618056,16.3090278 48.5909722,14.8729167 47.7201389,13.4673611 L45.8868056,13.4673611 L45.8868056,19.6395833 C46.3298611,19.6319444 46.7347222,19.6319444 47.1930556,19.6319444 Z M36.3076389,13.4520833 L34.9861111,13.4520833 L34.9861111,17.7222222 C34.9631944,17.7298611 34.9402778,17.7375 34.9173611,17.7375 C34.0388889,16.3013889 33.1604167,14.8652778 32.2895833,13.4520833 L30.4486111,13.4520833 L30.4486111,19.6243056 L31.7701389,19.6243056 L31.7701389,15.2472222 C31.7930556,15.2395833 31.8236111,15.2319444 31.8465278,15.2243056 C32.7479167,16.6986111 33.6569444,18.1652778 34.5430556,19.6243056 L36.3,19.6243056 C36.3076389,17.5618056 36.3076389,15.5222222 36.3076389,13.4520833 Z M45.4819444,23.7798611 C45.4819444,25.7430556 46.8340278,27.0645833 48.8430556,27.0645833 C50.8444444,27.0645833 52.2194444,25.7201389 52.2118056,23.7722222 C52.2041667,21.8319444 50.8215278,20.4951389 48.8201389,20.4951389 C46.8340278,20.5104167 45.4819444,21.8319444 45.4819444,23.7798611 Z M41.0895833,13.2611111 C39.2027778,13.2611111 37.9576389,14.3305556 37.7513889,16.1791667 C37.6138889,17.4166667 38.0798611,18.7305556 39.3326389,19.3798611 C40.49375,19.9756944 41.6854167,19.9833333 42.8465278,19.3875 C44.2902778,18.6465278 44.8708333,16.775 44.20625,15.1555556 C43.7097222,13.95625 42.5638889,13.2611111 41.0895833,13.2611111 Z M34.7722222,25.4909722 C33.9548611,26.0333333 32.6486111,25.9111111 32.0145833,25.2465278 C31.35,24.5361111 31.2888889,23.2756944 31.8847222,22.4736111 C32.1597222,22.1069444 32.5340278,21.8701389 32.9847222,21.7861111 C33.7256944,21.6486111 34.4131944,21.7631944 34.99375,22.3131944 C35.3145833,21.9618056 35.6125,21.6409722 35.9409722,21.2743056 C35.7118056,21.1291667 35.5208333,20.9916667 35.3145833,20.8847222 C34.8180556,20.625 34.2833333,20.5486111 33.7333333,20.5180556 C31.6631944,20.4034722 30.1506944,21.6638889 30.0895833,23.6881944 C30.0361111,25.3458333 30.9986111,26.6291667 32.6180556,26.9805556 C33.2520833,27.1180556 33.8861111,27.0798611 34.5201389,26.9805556 C35.0625,26.8888889 35.5743056,26.7361111 36.0555556,26.4763889 L36.0555556,23.2527778 L33.6875,23.2527778 L33.6875,24.475 L34.7722222,24.475 L34.7722222,25.4909722 Z M14.8194444,24.81875 C15.5986111,23.7416667 16.29375,22.5958333 16.8361111,21.3506944 C17.2486111,20.4034722 17.5388889,19.4256944 17.6152778,18.3944444 C17.6763889,17.5694444 17.1722222,17.1340278 16.3930556,17.4013889 C16.0340278,17.5236111 15.6902778,17.7375 15.4,17.9743056 C14.6513889,18.5930556 14.1777778,19.4180556 13.8263889,20.1743056 C14.1701389,21.79375 14.4909722,23.30625 14.8194444,24.81875 Z M47.2770833,43.3736111 C47.9645833,43.3736111 48.6291667,43.3888889 49.2861111,43.3659722 C49.56875,43.3583333 49.8590278,43.2972222 50.1263889,43.2131944 C51.3868056,42.8159722 52.0743056,41.7159722 51.9520833,40.3333333 C51.8451389,39.1034722 50.9666667,38.1868056 49.6833333,38.0645833 C48.9041667,37.9881944 48.1173611,38.0340278 47.3305556,38.0263889 C47.3152778,38.0263889 47.3,38.0416667 47.2694444,38.0645833 C47.2770833,39.8215278 47.2770833,41.5708333 47.2770833,43.3736111 Z M20.3729167,41.0131944 C20.4951389,40.9673611 20.5791667,40.9291667 20.6631944,40.8986111 C21.2513889,40.6694444 21.6486111,40.0659722 21.6027778,39.4701389 C21.5493056,38.7368056 21.1597222,38.1868056 20.4569444,38.1027778 C19.6395833,38.0034722 18.8069444,38.0263889 17.9590278,37.9958333 L17.9590278,43.3583333 L18.7916667,43.3583333 L18.7916667,41.1048611 L19.4791667,41.1048611 C19.9145833,41.8611111 20.3576389,42.625 20.7930556,43.3583333 L21.8319444,43.3583333 C21.3354167,42.5638889 20.8618056,41.8 20.3729167,41.0131944 Z M41.3111111,41.0361111 L43.7631944,41.0361111 L43.7631944,40.2263889 L41.3263889,40.2263889 L41.3263889,38.8131944 L43.9465278,38.8131944 L43.9465278,38.0493056 L40.4708333,38.0493056 L40.4708333,43.3583333 L44.0611111,43.3583333 L44.0611111,42.5944444 L41.3111111,42.5944444 L41.3111111,41.0361111 Z M11.8708333,41.04375 L14.3229167,41.04375 L14.3229167,40.2263889 L11.8861111,40.2263889 L11.8861111,38.8055556 L14.4986111,38.8055556 L14.4986111,38.0416667 L11.0458333,38.0416667 L11.0458333,43.3583333 L14.64375,43.3583333 L14.64375,42.5868056 L11.8631944,42.5868056 C11.8708333,42.0597222 11.8708333,41.5784722 11.8708333,41.04375 Z M7.21875,38.0340278 C6.71458333,39.3784722 6.21041667,40.7152778 5.70625,42.0597222 L5.62222222,42.0597222 C5.13333333,40.7152778 4.64444444,39.3708333 4.16319444,38.0416667 L3.20069444,38.0416667 C3.89583333,39.8444444 4.57569444,41.6090278 5.25555556,43.3736111 L6.02708333,43.3736111 C6.72222222,41.6013889 7.41736111,39.8291667 8.12777778,38.0340278 L7.21875,38.0340278 Z M32.7479167,38.0416667 L29.3715278,38.0416667 L29.3715278,43.3659722 L30.1736111,43.3659722 L30.1736111,41.1277778 L32.5722222,41.1277778 L32.5722222,40.3333333 L30.2041667,40.3333333 L30.2041667,38.8131944 L32.7555556,38.8131944 C32.7479167,38.5381944 32.7479167,38.3013889 32.7479167,38.0416667 Z M30.8763889,30.8305556 C31.0444444,30.8229167 31.1590278,30.8076389 31.28125,30.8076389 C31.6631944,30.8 32.0375,30.8152778 32.4194444,30.7770833 C33.1909722,30.7083333 33.6645833,30.2041667 33.6951389,29.425 C33.7333333,28.6763889 33.2979167,28.0652778 32.5569444,27.9888889 C31.8083333,27.9125 31.0444444,27.9506944 30.2881944,27.9430556 C30.2729167,27.9430556 30.2576389,27.9659722 30.25,27.9736111 L30.25,33.0840278 L30.8763889,33.0840278 L30.8763889,30.8305556 Z M42.7701389,31.6173611 L45.5354167,31.6173611 C45.6881944,30.7236111 45.2145833,29.8756944 44.4583333,29.6541667 C43.4041667,29.3409722 42.3652778,29.9291667 42.1513889,30.9680556 C41.9145833,32.1291667 42.55625,33.0611111 43.7020833,33.20625 C44.3743056,33.2902778 45.1076389,32.9847222 45.375,32.5034722 C45.2375,32.4041667 45.1,32.2972222 44.9701389,32.1979167 C44.2673611,32.7402778 43.8777778,32.8243056 43.3506944,32.5416667 C42.9993056,32.3506944 42.7930556,32.0680556 42.7701389,31.6173611 Z M38.1715278,29.5854167 C37.1402778,29.5854167 36.3381944,30.3875 36.3381944,31.4034722 C36.3381944,32.4041667 37.1708333,33.2215278 38.1868056,33.2138889 C39.2027778,33.20625 40.0201389,32.3888889 40.0201389,31.3805556 C40.0201389,30.3722222 39.2104167,29.5777778 38.1715278,29.5854167 Z M25.6895833,43.3583333 L25.6895833,38.0340278 L24.8951389,38.0340278 L24.8951389,43.3583333 L25.6895833,43.3583333 Z M49.2479167,30.1201389 C48.6138889,29.4097222 47.3229167,29.4097222 46.6506944,30.0895833 C45.9479167,30.8 45.99375,32.1444444 46.7423611,32.7861111 C47.4527778,33.3895833 48.74375,33.34375 49.2173611,32.6944444 C49.0875,32.5569444 48.9652778,32.4118056 48.8354167,32.2819444 C48.2090278,32.7402778 47.5979167,32.7479167 47.1625,32.3201389 C46.7347222,31.8923611 46.6659722,31.1131944 47.0555556,30.6166667 C47.2006944,30.4333333 47.4298611,30.2729167 47.6513889,30.2041667 C48.0791667,30.0743056 48.4840278,30.1965278 48.8125,30.5402778 C48.9729167,30.3798611 49.1027778,30.2576389 49.2479167,30.1201389 Z M36.7965278,43.3659722 L36.7965278,38.0493056 L36.0173611,38.0493056 L36.0173611,43.3659722 C36.2923611,43.3659722 36.5368056,43.3659722 36.7965278,43.3659722 Z M51.8222222,29.6541667 L50.7833333,29.6541667 L50.7833333,28.4395833 L50.1875,28.4395833 L50.1875,29.6388889 C49.9583333,29.6618056 49.7520833,29.6770833 49.5458333,29.7 L49.5458333,30.1583333 C49.7673611,30.1736111 49.9659722,30.1888889 50.1951389,30.2118056 L50.1951389,30.5402778 C50.1951389,31.1055556 50.1875,31.6708333 50.1951389,32.2284722 C50.2027778,33.0763889 50.9972222,33.5041667 51.7458333,33.0763889 L51.7458333,32.5951389 C50.9666667,32.7097222 50.7986111,32.5569444 50.7909722,31.7854167 L50.7909722,30.7618056 L50.7909722,30.1736111 L51.8222222,30.1736111 L51.8222222,29.6541667 Z M40.7076389,29.6923611 L40.7076389,30.0513889 L40.7076389,33.5729167 C40.7076389,34.1763889 40.5548611,34.3291667 39.9361111,34.3291667 C39.9208333,34.4895833 39.8979167,34.6576389 39.8826389,34.8180556 C40.6541667,35.0930556 41.2881944,34.6805556 41.3034722,33.89375 C41.3263889,32.5493056 41.3111111,31.1972222 41.3111111,29.8527778 C41.3111111,29.8069444 41.2958333,29.76875 41.2805556,29.7 C41.0972222,29.6923611 40.9291667,29.6923611 40.7076389,29.6923611 Z M34.7875,33.0993056 C34.7951389,32.9847222 34.8027778,32.8854167 34.8027778,32.7861111 C34.8027778,32.2513889 34.7951389,31.7166667 34.8104167,31.1819444 C34.8333333,30.5708333 35.2305556,30.2194444 35.8416667,30.2347222 L36.1319444,30.2347222 L36.1319444,29.6159722 C35.5819444,29.49375 35.1923611,29.7458333 34.8256944,30.1583333 C34.8104167,29.9673611 34.7951389,29.8451389 34.7798611,29.7 L34.1993056,29.7 L34.1993056,33.1145833 L34.5201389,33.1145833 C34.6041667,33.1145833 34.6805556,33.1069444 34.7875,33.0993056 Z M41.4715278,28.39375 C41.4791667,28.1493056 41.2729167,27.9277778 41.0208333,27.9201389 C40.76875,27.9125 40.5548611,28.11875 40.5472222,28.3631944 C40.5395833,28.6076389 40.7458333,28.8291667 40.9979167,28.8368056 C41.2423611,28.8444444 41.4638889,28.6381944 41.4715278,28.39375 Z" id="Shape"></path>
            <path d="M50.8215278,23.7798611 C50.8215278,25.0020833 50.0270833,25.8270833 48.8430556,25.8423611 C47.6819444,25.8576389 46.8569444,25.0020833 46.8493056,23.7875 C46.8493056,22.5652778 47.6513889,21.7326389 48.8277778,21.7326389 C50.0270833,21.7326389 50.8215278,22.55 50.8215278,23.7798611 Z" id="Shape"></path>
            <path d="M41.0972222,14.4756944 C42.2506944,14.4756944 43.0756944,15.3159722 43.0833333,16.5076389 C43.0986111,17.7222222 42.2583333,18.5930556 41.0895833,18.5854167 C39.9208333,18.5854167 39.1111111,17.7451389 39.1034722,16.5229167 C39.0958333,15.33125 39.9284722,14.4756944 41.0972222,14.4756944 Z" id="Shape"></path>
            <path d="M48.1173611,42.5944444 L48.1173611,38.7673611 C48.7208333,38.8208333 49.3243056,38.8131944 49.8819444,38.9430556 C50.6305556,39.11875 50.9895833,39.7145833 51.0736111,40.4479167 C51.1652778,41.2118056 50.9284722,41.8534722 50.2333333,42.2659722 C49.5840278,42.6555556 48.8659722,42.6173611 48.1173611,42.5944444 Z" id="Shape"></path>
            <path d="M18.7993056,38.7444444 C19.2729167,38.7673611 19.7159722,38.7673611 20.1513889,38.8284722 C20.5256944,38.8819444 20.7013889,39.1340278 20.7090278,39.5159722 C20.7166667,39.9208333 20.5638889,40.2034722 20.1972222,40.2569444 C19.7465278,40.3333333 19.2881944,40.3333333 18.8069444,40.3638889 C18.7993056,39.80625 18.7993056,39.3097222 18.7993056,38.7444444 Z" id="Shape"></path>
            <path d="M30.8916667,30.25 L30.8916667,28.5006944 C31.4569444,28.53125 32.0145833,28.4013889 32.5493056,28.6229167 C32.8854167,28.7604167 32.9923611,29.0506944 32.9923611,29.3791667 C32.9923611,29.7 32.8854167,29.9902778 32.5569444,30.1125 C32.3659722,30.1888889 32.1520833,30.2270833 31.9381944,30.2423611 C31.6097222,30.2652778 31.2659722,30.25 30.8916667,30.25 Z" id="Shape"></path>
            <path d="M44.8861111,31.1131944 L42.8006944,31.1131944 C42.7777778,30.5097222 43.3048611,30.04375 43.9541667,30.0666667 C44.5423611,30.0819444 44.9472222,30.5326389 44.8861111,31.1131944 Z" id="Shape"></path>
            <path d="M38.1944444,32.6409722 C37.4840278,32.6409722 37.0027778,32.1520833 36.9951389,31.4034722 C36.9875,30.6625 37.46875,30.1506944 38.1715278,30.1354167 C38.8590278,30.1201389 39.3631944,30.6472222 39.3708333,31.3805556 C39.3861111,32.1138889 38.8972222,32.6333333 38.1944444,32.6409722 Z" id="Shape"></path>
        </g>
    </g>
</svg>