<?xml version="1.0" encoding="UTF-8"?>
<svg width="55px" height="55px" viewBox="0 0 55 55" version="1.1" xmlns="http://www.w3.org/2000/svg" xmlns:xlink="http://www.w3.org/1999/xlink">
    <!-- Generator: Sketch 41.2 (35397) - http://www.bohemiancoding.com/sketch -->
    <title>usda-organic</title>
    <desc>Created with Sketch.</desc>
    <defs></defs>
    <g id="Page-1" stroke="none" stroke-width="1" fill="none" fill-rule="evenodd">
        <g id="usda-organic" fill="#543213">
            <path d="M54.903169,27.4419014 C54.903169,42.6056338 42.6056338,54.8838028 27.4612676,54.8838028 C12.2975352,54.903169 0,42.6056338 0,27.4419014 C0,12.2975352 12.2975352,0 27.4419014,0 C42.6056338,0 54.903169,12.2975352 54.903169,27.4419014 Z M27.4419014,2.13028169 C13.459507,2.13028169 2.13028169,13.459507 2.13028169,27.4419014 C2.13028169,41.4242958 13.459507,52.7535211 27.4419014,52.7535211 C41.4242958,52.7535211 52.7535211,41.4242958 52.7535211,27.4419014 C52.7535211,13.459507 41.4242958,2.13028169 27.4419014,2.13028169 Z" id="Shape"></path>
            <g id="Group" transform="translate(13.362676, 14.137324)">
                <path d="M2.55633803,0.213028169 L2.55633803,7.82394366 C2.55633803,8.85035211 2.82746479,9.10211268 3.29225352,9.10211268 C3.75704225,9.10211268 4.02816901,8.83098592 4.02816901,7.82394366 L4.02816901,0.213028169 L6.48767606,0.213028169 L6.48767606,7.12676056 C6.48767606,10.0897887 5.34507042,10.9612676 3.29225352,10.9612676 C1.22007042,10.9612676 0.0968309859,10.0704225 0.0968309859,7.12676056 L0.0968309859,0.213028169 L2.55633803,0.213028169 Z" id="Shape"></path>
                <path d="M10.9806338,3.25352113 L10.9806338,3.00176056 C10.9806338,2.38204225 10.7482394,1.85915493 10.2834507,1.85915493 C9.76056338,1.85915493 9.50880282,2.32394366 9.50880282,2.78873239 C9.50880282,4.88028169 13.5369718,3.85387324 13.5369718,7.70774648 C13.5369718,9.95422535 12.3556338,10.9612676 10.1866197,10.9612676 C8.15316901,10.9612676 7.01056338,10.1866197 7.01056338,7.99823944 L7.01056338,7.63028169 L9.39260563,7.63028169 L9.39260563,7.88204225 C9.39260563,8.79225352 9.72183099,9.10211268 10.2059859,9.10211268 C10.709507,9.10211268 11,8.65669014 11,8.07570423 C11,5.98415493 7.12676056,7.02992958 7.12676056,3.29225352 C7.12676056,1.16197183 8.15316901,0 10.2253521,0 C12.375,0 13.2852113,0.987676056 13.2852113,3.25352113 L10.9806338,3.25352113 L10.9806338,3.25352113 Z" id="Shape"></path>
                <path d="M14.6795775,0.213028169 L18.2623239,0.213028169 C21.1091549,0.213028169 21.2447183,2.7306338 21.2447183,5.4806338 C21.2447183,8.25 21.0897887,10.7482394 18.2623239,10.7482394 L14.6795775,10.7482394 L14.6795775,0.213028169 Z M17.1390845,8.79225352 L17.6232394,8.79225352 C18.5721831,8.79225352 18.6883803,8.34683099 18.6883803,5.5 C18.6883803,2.65316901 18.5721831,2.20774648 17.6232394,2.20774648 L17.1390845,2.20774648 L17.1390845,8.79225352 Z" id="Shape"></path>
                <path d="M23.5880282,0.213028169 L26.6866197,0.213028169 L28.9911972,10.7676056 L26.3767606,10.7676056 L26.125,8.9278169 L24.1690141,8.9278169 L23.9172535,10.7676056 L21.3028169,10.7676056 L23.5880282,0.213028169 Z M25.1566901,2.36267606 L25.1373239,2.36267606 L24.459507,6.83626761 L25.834507,6.83626761 L25.1566901,2.36267606 Z" id="Shape"></path>
            </g>
            <g id="Group" transform="translate(3.679577, 27.306338)">
                <polygon id="Shape" points="25.2728873 4.8221831 24.7693662 8.2306338 25.8151408 8.2306338 25.2922535 4.8221831"></polygon>
                <path d="M13.7306338,4.68661972 L13.3626761,4.68661972 L13.3626761,6.58450704 L13.75,6.58450704 C14.2922535,6.58450704 14.5440141,6.1971831 14.5440141,5.63556338 C14.5246479,4.97711268 14.2922535,4.68661972 13.7306338,4.68661972 Z" id="Shape"></path>
                <path d="M8.2306338,4.43485915 C7.64964789,4.43485915 7.5915493,5.01584507 7.5915493,7.18485915 C7.5915493,9.35387324 7.64964789,9.93485915 8.2306338,9.93485915 C8.81161972,9.93485915 8.86971831,9.35387324 8.86971831,7.18485915 C8.86971831,5.03521127 8.81161972,4.43485915 8.2306338,4.43485915 Z" id="Shape"></path>
                <path d="M0.0968309859,0.13556338 C0.0968309859,13.2077465 10.6901408,23.8204225 23.7816901,23.8204225 C36.8732394,23.8204225 47.4471831,13.2271127 47.4471831,0.13556338 L0.0968309859,0.13556338 Z M8.2306338,11.3679577 C6.31338028,11.3679577 5.65492958,10.2059859 5.65492958,7.18485915 C5.65492958,4.18309859 6.31338028,3.00176056 8.2306338,3.00176056 C10.1478873,3.00176056 10.806338,4.16373239 10.806338,7.18485915 C10.806338,10.2059859 10.1478873,11.3679577 8.2306338,11.3679577 Z M16.6742958,11.2130282 L14.6602113,11.2130282 C14.4859155,10.7869718 14.4859155,10.0123239 14.4859155,9.68309859 L14.4859155,9.14084507 C14.4859155,8.2306338 14.3309859,7.99823944 13.8661972,7.99823944 L13.3626761,7.99823944 L13.3626761,11.2130282 L11.4841549,11.2130282 L11.4841549,3.17605634 L14.4278169,3.17605634 C15.8609155,3.17605634 16.403169,4.08626761 16.403169,5.30633803 C16.403169,6.37147887 16.0352113,7.06866197 15.1637324,7.22359155 L15.1637324,7.24295775 C16.0739437,7.33978873 16.3450704,7.97887324 16.3450704,9.04401408 L16.3450704,9.72183099 C16.3450704,10.1478873 16.3450704,10.6707746 16.4419014,10.8450704 C16.5,10.9419014 16.5387324,11.0193662 16.6549296,11.096831 L16.6549296,11.2130282 L16.6742958,11.2130282 Z M19.7535211,9.95422535 C20.1408451,9.95422535 20.3732394,9.66373239 20.3926056,8.2693662 L19.7341549,8.2693662 L19.7341549,6.8556338 L22.1549296,6.8556338 L22.1549296,11.2323944 L20.8767606,11.2323944 L20.8380282,10.5158451 L20.818662,10.5158451 C20.5669014,11.193662 19.8890845,11.3873239 19.2693662,11.3873239 C17.3521127,11.3873239 17.1778169,9.85739437 17.1778169,7.20422535 C17.1778169,4.51232394 17.6426056,3.02112676 19.8697183,3.02112676 C21.2059859,3.02112676 22.1549296,3.77640845 22.1549296,5.73239437 L20.334507,5.73239437 C20.334507,5.32570423 20.2957746,5.01584507 20.2376761,4.8028169 C20.1602113,4.57042254 20.0246479,4.45422535 19.8116197,4.45422535 C19.1919014,4.45422535 19.1338028,5.03521127 19.1338028,7.20422535 C19.1144366,9.37323944 19.1725352,9.95422535 19.7535211,9.95422535 Z M26.2411972,11.2130282 L26.0475352,9.79929577 L24.556338,9.79929577 L24.3626761,11.2130282 L22.3679577,11.2130282 L24.1302817,3.17605634 L26.4929577,3.17605634 L28.2552817,11.2130282 L26.2411972,11.2130282 Z M33.6584507,11.2130282 L31.5862676,11.2130282 L30.3274648,6.25528169 L30.3080986,6.25528169 L30.3080986,11.2130282 L28.5457746,11.2130282 L28.5457746,3.17605634 L30.6566901,3.17605634 L31.8767606,8.13380282 L31.8961268,8.13380282 L31.8961268,3.17605634 L33.6584507,3.17605634 L33.6584507,11.2130282 L33.6584507,11.2130282 Z M36.3503521,11.2130282 L34.471831,11.2130282 L34.471831,3.17605634 L36.3503521,3.17605634 L36.3503521,11.2130282 Z M39.5457746,11.3679577 C37.4348592,11.3679577 36.9700704,10.1866197 36.9700704,7.18485915 C36.9700704,4.1056338 37.5897887,3.00176056 39.5457746,3.00176056 C41.25,3.00176056 41.8890845,3.98943662 41.8890845,5.53873239 L41.8890845,6.04225352 L40.068662,6.04225352 L40.068662,5.61619718 C40.068662,4.70598592 39.9137324,4.43485915 39.5457746,4.43485915 C38.9647887,4.43485915 38.9066901,5.01584507 38.9066901,7.18485915 C38.9066901,9.35387324 38.9647887,9.93485915 39.5457746,9.93485915 C40.0105634,9.93485915 40.1073944,9.48943662 40.1073944,7.95950704 L41.9278169,7.95950704 L41.9278169,8.55985915 C41.9278169,10.8450704 40.7464789,11.3679577 39.5457746,11.3679577 Z" id="Shape"></path>
            </g>
        </g>
    </g>
</svg>